<?xml version="1.0" standalone="no"?><!DOCTYPE svg PUBLIC "-//W3C//DTD SVG 1.1//EN" "http://www.w3.org/Graphics/SVG/1.1/DTD/svg11.dtd"><svg class="icon" width="128px" height="109.68px" viewBox="0 0 1195 1024" version="1.1" xmlns="http://www.w3.org/2000/svg"><path d="M1045.332642 1024 149.292732 1024C66.835636 1024 0 953.423745 0 866.417626L0 315.006388c0-87.006119 66.835636-157.503194 149.292732-157.503194l327.338044 0C517.041982 84.50173 591.086835 0 634.66652 0l298.667199 0c45.582175 0 125.163247 92.839901 163.918056 167.838746 56.752949 22.327501 97.415743 79.499338 97.415743 147.167642l0 551.411238C1194.667518 953.423745 1127.830605 1024 1045.332642 1024zM298.665922 315.006388l-74.6668 0c-41.243873 0-74.707667 35.329633-74.707667 78.828861 0 43.499228 33.462516 78.75479 74.707667 78.75479l74.6668 0c41.213223 0 74.62721-35.255562 74.62721-78.75479C373.293131 350.336021 339.879145 315.006388 298.665922 315.006388zM784.00012 236.250321c-185.582743 0-336.040189 158.756027-336.040189 354.505746 0 195.748442 150.457445 354.415072 336.040189 354.415072 185.50484 0 336.000599-158.665353 336.000599-354.415072C1119.999441 395.006348 969.503683 236.250321 784.00012 236.250321zM784.00012 787.670499c-103.119261 0-186.665722-88.170832-186.665722-196.913155 0-108.751263 83.546461-196.920817 186.665722-196.920817 103.087334 0 186.666999 88.169555 186.666999 196.920817C970.667119 699.499667 887.086177 787.670499 784.00012 787.670499z" fill="#707070" /></svg>