<?xml version="1.0" standalone="no"?><!DOCTYPE svg PUBLIC "-//W3C//DTD SVG 1.1//EN" "http://www.w3.org/Graphics/SVG/1.1/DTD/svg11.dtd"><svg class="icon" width="128px" height="128.00px" viewBox="0 0 1024 1024" version="1.1" xmlns="http://www.w3.org/2000/svg"><path d="M565.93408 817.573647a34.816 34.816 0 0 0 9.818353 29.394824l0.301176 0.240941a35.538824 35.538824 0 0 0 25.6 10.962823c11.143529 0 20.660706-5.421176 27.226353-13.312L983.424904 457.788235a35.117176 35.117176 0 0 0 10.24-27.105882 35.056941 35.056941 0 0 0-10.24-27.105882L626.892198 14.336a36.502588 36.502588 0 0 0-51.2 0 34.936471 34.936471 0 0 0-9.758118 29.394824v209.618823C269.937845 253.349647 29.960433 492.242824 29.960433 787.034353a529.468235 529.468235 0 0 0 44.453647 212.510118c42.285176-222.268235 255.397647-391.107765 490.917647-391.107765l0.602353 209.136941z" fill="#cdcdcd" /></svg>