<?xml version="1.0" standalone="no"?><!DOCTYPE svg PUBLIC "-//W3C//DTD SVG 1.1//EN" "http://www.w3.org/Graphics/SVG/1.1/DTD/svg11.dtd"><svg class="icon" width="128px" height="128.00px" viewBox="0 0 1024 1024" version="1.1" xmlns="http://www.w3.org/2000/svg"><path d="M286.72 204.8h655.36a81.92 81.92 0 0 1 81.92 81.92v655.36a81.92 81.92 0 0 1-81.92 81.92H286.72a81.92 81.92 0 0 1-81.92-81.92V286.72a81.92 81.92 0 0 1 81.92-81.92z m-61.44-61.44a81.92 81.92 0 0 0-81.92 81.92v593.92H81.92a81.92 81.92 0 0 1-81.92-81.92V81.92a81.92 81.92 0 0 1 81.92-81.92h655.36a81.92 81.92 0 0 1 81.92 81.92v61.44H225.28z" fill="#cdcdcd" /></svg>